<?xml version="1.0" encoding="UTF-8" standalone="no"?>
<svg
   xmlns:dc="http://purl.org/dc/elements/1.1/"
   xmlns:cc="http://creativecommons.org/ns#"
   xmlns:rdf="http://www.w3.org/1999/02/22-rdf-syntax-ns#"
   xmlns:svg="http://www.w3.org/2000/svg"
   xmlns="http://www.w3.org/2000/svg"
   viewBox="0 0 1440 546.66669"
   height="546.66669"
   width="1440"
   xml:space="preserve"
   id="svg2"
   version="1.1"><metadata
     id="metadata8"><rdf:RDF><cc:Work
         rdf:about=""><dc:format>image/svg+xml</dc:format><dc:type
           rdf:resource="http://purl.org/dc/dcmitype/StillImage" /></cc:Work></rdf:RDF></metadata><defs
     id="defs6"><clipPath
       id="clipPath20"
       clipPathUnits="userSpaceOnUse"><path
         id="path18"
         d="M 0,0 H 1080 V 410 H 0 Z" /></clipPath></defs><g
     transform="matrix(1.3333333,0,0,-1.3333333,0,546.66667)"
     id="g10"><g
       id="g12" /><g
       id="g14"><g
         clip-path="url(#clipPath20)"
         id="g16"><g
           transform="translate(223.2301,121.5284)"
           id="g22"><text
             id="text26"
             style="font-variant:normal;font-weight:normal;font-size:227px;font-family:HelveticaNeue;-inkscape-font-specification:HelveticaNeue;writing-mode:lr-tb;fill:#000000;fill-opacity:1;fill-rule:nonzero;stroke:none"
             transform="scale(1,-1)"><tspan
               id="tspan24"
               y="0"
               x="0 48.805 152.317 255.82899 355.02802 445.828 473.522 501.216 528.90997 628.10901 735.70697">tunevillage</tspan></text>
</g><path
           id="path28"
           style="fill:#1da0c3;fill-opacity:1;fill-rule:nonzero;stroke:none"
           d="m 28.60503,273.3123 -1.0552,-5.9795 12.56651,-2.2223 0.22383,1.2311 61.23373,-10.7919 -0.2238,-1.2471 85.4714,-15.0606 H 17.5254 c -3.5639,0 -6.45913,-2.8952 -6.45912,-6.4591 V 127.8702 c 0,-3.5639 2.89523,-6.4432 6.45912,-6.4432 h 191.6313 c 3.5639,0 6.4591,2.8792 6.4591,6.4432 v 104.9127 c 0,3.5639 -2.8952,6.4592 -6.4591,6.4591 h -11.3195 l 0.7354,4.1089 -96.1673,16.9472 -0.2079,-1.2311 -61.2337,10.7919 0.20784,1.2311 z m 45.34175,-45.8694 c 2.09455,0 3.80519,-1.7276 3.80513,-3.8211 0,-2.0945 -1.70764,-3.8052 -3.82111,-3.8051 -2.09455,0 -3.78919,1.7106 -3.78914,3.8051 0,2.113 1.69164,3.8213 3.80512,3.8211 z m 94.04092,-0.4156 c 18.37,0 33.255,-14.8849 33.2549,-33.2549 0,-18.37 -14.8849,-33.2709 -33.2549,-33.2709 -18.3699,0 -33.2708,14.9009 -33.2708,33.2709 0,18.37 14.9008,33.255 33.2708,33.2549 z M 61.09249,225.3645 c 1.47911,-0.1268 2.80812,-1.1244 3.29352,-2.638 0.64821,-1.9989 -0.46226,-4.1168 -2.46215,-4.7644 -0.38012,-0.133 -0.76997,-0.1918 -1.15113,-0.1919 -1.61874,0 -3.11266,1.0228 -3.64524,2.6221 -0.64822,2.0178 0.46326,4.1491 2.46214,4.7963 0.49997,0.1618 1.00988,0.2182 1.50286,0.1759 z m 25.6926,-0.016 c 0.49151,0.0422 1.00293,-0.0138 1.50286,-0.1758 1.99887,-0.6472 3.09345,-2.7966 2.44615,-4.7964 -0.53361,-1.6177 -2.01423,-2.638 -3.61327,-2.638 -0.40059,0 -0.80307,0.0618 -1.1831,0.1758 -2.01832,0.6662 -3.09334,2.7975 -2.44616,4.7964 0.49998,1.5137 1.81903,2.5114 3.29352,2.638 z m -37.31582,-6.0594 c 0.96158,-0.1523 1.85933,-0.6719 2.47813,-1.5189 1.23759,-1.7144 0.86356,-4.1024 -0.83137,-5.3399 -0.68505,-0.4758 -1.47358,-0.7195 -2.2543,-0.7195 -1.16136,0 -2.34279,0.5545 -3.08567,1.5828 -1.2381,1.695 -0.85062,4.0704 0.86335,5.308 0.84749,0.6188 1.86834,0.8399 2.82986,0.6875 z m 48.93904,-0.048 c 0.96157,0.1476 1.96639,-0.0841 2.81389,-0.7034 1.695,-1.2376 2.0861,-3.613 0.8473,-5.308 -0.7418,-1.0273 -1.9057,-1.5508 -3.08563,-1.5509 -0.78072,0 -1.56921,0.2248 -2.2543,0.7195 -1.69497,1.2381 -2.05261,3.6106 -0.81538,5.324 0.6188,0.847 1.53255,1.3712 2.49412,1.5188 z m -24.57344,-4.9882 c 2.1145,0 3.80507,-1.6911 3.80512,-3.8051 0.01944,-2.0935 -1.69402,-3.8051 -3.78913,-3.8051 -2.11297,0 -3.80175,1.6945 -3.82112,3.7891 0,2.113 1.69165,3.8028 3.80513,3.8211 z m 12.9662,-2.8938 c 0.49358,-0.0241 0.9835,-0.1393 1.4549,-0.3677 1.90423,-0.9138 2.70501,-3.18 1.79065,-5.0842 -0.66561,-1.3517 -2.00911,-2.1584 -3.4374,-2.1584 -0.55254,0 -1.11313,0.1172 -1.64676,0.3837 -1.90371,0.9138 -2.70447,3.18 -1.79065,5.0842 0.68531,1.414 2.14852,2.2146 3.62926,2.1424 z m -25.93241,-0.048 c 1.48421,0.0778 2.92982,-0.728 3.62926,-2.1424 0.91323,-1.9037 0.12963,-4.1674 -1.77466,-5.1001 -0.53361,-0.2481 -1.09472,-0.3677 -1.64676,-0.3677 -1.40949,0 -2.78976,0.7907 -3.4374,2.1424 -0.91374,1.8853 -0.12714,4.1698 1.75867,5.0841 0.47606,0.2285 0.97615,0.3578 1.47089,0.3837 z M 38.8373,209.8722 c 0.96158,0.1475 1.98243,-0.0847 2.82987,-0.7035 1.69395,-1.2375 2.08502,-3.6129 0.84736,-5.3079 -0.74287,-1.0284 -1.90482,-1.5509 -3.08567,-1.5509 -0.78124,0 -1.56815,0.2248 -2.2543,0.7195 -1.69395,1.2376 -2.07254,3.6095 -0.81538,5.324 0.61879,0.8469 1.51654,1.3713 2.47812,1.5188 z m 70.171,-0.0799 c 0.9616,-0.1524 1.8594,-0.6559 2.4781,-1.5029 1.2376,-1.695 0.8636,-4.1024 -0.8313,-5.34 -0.6851,-0.4758 -1.4612,-0.7195 -2.2224,-0.7194 -1.1808,0 -2.3394,0.5419 -3.1016,1.5508 -1.2182,1.7149 -0.8659,4.1029 0.8473,5.34 0.8475,0.6188 1.8683,0.8239 2.8299,0.6715 z m -11.71915,-6.603 c 0.97105,-0.1072 1.9075,-0.5884 2.57406,-1.407 1.31379,-1.6371 1.04559,-4.0266 -0.59156,-5.3399 -0.70449,-0.571 -1.54465,-0.8474 -2.3822,-0.8474 -1.12401,0 -2.23088,0.4743 -2.97375,1.4069 -1.33327,1.6566 -1.06157,4.0386 0.57556,5.372 0.8191,0.6569 1.82681,0.9225 2.79789,0.8154 z m -46.87659,-0.096 c 0.9686,0.1071 1.97885,-0.158 2.79789,-0.8154 1.65558,-1.2938 1.92084,-3.6843 0.60754,-5.3399 -0.74287,-0.9337 -1.86911,-1.4389 -2.97376,-1.4389 -0.83751,0 -1.67777,0.2758 -2.3822,0.8473 -1.63716,1.2944 -1.92136,3.6834 -0.60754,5.34 0.65691,0.8186 1.58942,1.2998 2.55807,1.4069 z m 23.42231,-2.0304 c 2.1145,0.0184 3.82107,-1.6946 3.82111,-3.7892 0,-2.1134 -1.69166,-3.8211 -3.80512,-3.8211 -2.09455,5e-4 -3.80519,1.6911 -3.80513,3.8051 0,2.0946 1.6956,3.8052 3.78914,3.8052 z m -40.80118,-3.0377 c 0.49303,0.0411 1.00297,-0.01 1.50286,-0.1759 1.99888,-0.6482 3.07836,-2.7975 2.43017,-4.7964 -0.53259,-1.5998 -2.01385,-2.6381 -3.61327,-2.638 -0.39957,0 -0.80184,0.0594 -1.18311,0.1919 -1.99887,0.6482 -3.11279,2.7975 -2.44615,4.7963 0.48539,1.5 1.83035,2.4987 3.3095,2.6221 z m 81.77821,-0.08 c 1.4787,-0.1231 2.8081,-1.106 3.2935,-2.606 0.6482,-1.9989 -0.463,-4.1482 -2.4621,-4.7964 -0.3812,-0.133 -0.7834,-0.1918 -1.1831,-0.1918 -1.5998,0 -3.0807,1.0222 -3.6133,2.622 -0.6482,2.0183 0.4622,4.1481 2.4622,4.7964 0.4997,0.1665 1.0099,0.2169 1.5028,0.1758 z m -29.46573,-1.6148 c 0.97349,0.002 1.94997,-0.354 2.70196,-1.0871 1.4847,-1.4858 1.49724,-3.9033 0.03198,-5.388 -0.76231,-0.7612 -1.74627,-1.135 -2.71795,-1.1351 -0.97053,0 -1.92822,0.3763 -2.66998,1.1191 -1.50466,1.4847 -1.51666,3.8833 -0.03198,5.388 0.74286,0.7428 1.71244,1.1007 2.68597,1.1031 z m -22.99063,-0.0639 c 0.9759,0.002 1.95961,-0.3608 2.70196,-1.1032 1.4847,-1.4857 1.50068,-3.9022 0.01599,-5.3879 -0.76231,-0.7429 -1.73144,-1.1191 -2.70196,-1.1192 -0.97156,0 -1.94305,0.3788 -2.68597,1.1032 -1.50415,1.4847 -1.50071,3.9032 -0.01599,5.3879 0.74286,0.7521 1.71002,1.1168 2.68597,1.1192 z m 40.89706,-4.8923 c 1.4629,-0.2587 2.6964,-1.3651 3.0537,-2.8938 0.4758,-2.0557 -0.7931,-4.0962 -2.8298,-4.5726 -0.3049,-0.0762 -0.5939,-0.0958 -0.8794,-0.0959 -1.7328,0 -3.29318,1.1876 -3.69317,2.9578 -0.47631,2.0382 0.80897,4.0967 2.84587,4.5725 0.5142,0.119 1.0153,0.1183 1.5028,0.032 z m -58.77156,-0.1279 c 0.4865,0.0875 1.00934,0.0821 1.51885,-0.032 2.05669,-0.4758 3.33763,-2.5039 2.86184,-4.5406 -0.39957,-1.7712 -1.95789,-2.9737 -3.7092,-2.9737 -0.26655,0 -0.54531,0.0197 -0.83137,0.0959 -2.05617,0.4574 -3.33527,2.4999 -2.87783,4.5566 0.34304,1.5425 1.57822,2.6312 3.03771,2.8938 z m -13.22201,-6.3632 c 2.09454,-0.0195 3.80769,-1.7227 3.78914,-3.8371 0,-2.0946 -1.69217,-3.7893 -3.80513,-3.7891 -2.09506,0 -3.80757,1.726 -3.78914,3.8211 0,2.1134 1.69166,3.8051 3.80513,3.8051 z m 58.9155,-0.016 c 2.09454,0 3.80509,-1.6946 3.80512,-3.7891 0.01893,-2.1145 -1.67549,-3.837 -3.78914,-3.8371 0,0 0.0034,0 -0.01598,0 -2.09353,0 -3.78901,1.6945 -3.78914,3.7891 -0.01944,2.1135 1.67603,3.837 3.78914,3.8371 z m -16.2917,-0.0799 c 2.11348,0.0194 3.80219,-1.6946 3.82112,-3.7892 0,-2.1134 -1.69165,-3.8211 -3.80513,-3.8211 -2.11348,0 -3.80514,1.6922 -3.80513,3.8051 -0.01893,2.0951 1.6941,3.8052 3.78914,3.8052 z m 42.65577,0 c 2.1135,0 3.821,-1.6912 3.8211,-3.8052 0,-0.0184 0,-0.0597 0,-0.0799 0,-0.0379 0,-0.0745 0,-0.1119 -0.0194,-2.0946 -1.7266,-3.7893 -3.8211,-3.7892 -2.1135,0.0185 -3.8091,1.7074 -3.7891,3.8212 0,0.0194 0,0.0422 0,0.0799 0,0.0194 0,0.0616 0,0.0799 0,2.114 1.6946,3.8052 3.7891,3.8052 z m -58.93147,-0.016 c 2.11347,0 3.80514,-1.6922 3.80512,-3.8051 0.01842,-2.0946 -1.69459,-3.8213 -3.78914,-3.8212 -2.11347,0 -3.80219,1.7076 -3.82111,3.8212 0,2.0945 1.71058,3.805 3.80513,3.8051 z m 44.36647,-6.5071 c 0.4865,0.0892 0.9934,0.0824 1.5029,-0.032 2.0567,-0.4758 3.3502,-2.4844 2.8938,-4.5406 -0.3996,-1.7701 -1.9764,-2.9736 -3.7092,-2.9737 -0.2855,0 -0.5809,0.0221 -0.8474,0.0799 -2.05716,0.4758 -3.35007,2.5038 -2.89378,4.5406 0.34304,1.5425 1.59398,2.6581 3.05368,2.9258 z m -56.14957,-0.1119 c 1.46311,-0.2622 2.71245,-1.3672 3.06968,-2.9098 0.45636,-2.0378 -0.82116,-4.0831 -2.87783,-4.5406 -0.28548,-0.0762 -0.58087,-0.1279 -0.84736,-0.1279 -1.75176,0 -3.30856,1.2026 -3.7092,2.9738 -0.47631,2.0566 0.80619,4.0963 2.86184,4.5725 0.51417,0.1143 1.01521,0.1193 1.50287,0.032 z m 39.61807,-4.8124 c 0.97347,0.005 1.94369,-0.361 2.68597,-1.1032 1.50415,-1.4847 1.53318,-3.8833 0.04796,-5.3879 -0.74286,-0.7428 -1.74744,-1.1192 -2.71794,-1.1191 -0.97156,0 -1.92707,0.3602 -2.66999,1.1031 -1.48521,1.4847 -1.51821,3.8839 -0.03197,5.388 0.73314,0.7423 1.71255,1.1147 2.68597,1.1191 z m -23.0386,-0.0639 c 0.9759,0 1.94363,-0.3762 2.68597,-1.1192 1.48522,-1.4852 1.48571,-3.9027 0,-5.3879 -0.74286,-0.7419 -1.71434,-1.1191 -2.68597,-1.1192 -0.98895,0 -1.95968,0.3774 -2.70196,1.1192 -1.4847,1.4857 -1.48469,3.9031 0,5.3879 0.74287,0.7429 1.72601,1.1191 2.70196,1.1192 z m -28.77826,-1.5988 c 1.47368,-0.1314 2.79143,-1.123 3.27752,-2.6221 0.6472,-1.9998 -0.44722,-4.149 -2.44615,-4.7963 -0.38115,-0.133 -0.78688,-0.1921 -1.16712,-0.1919 -1.60032,0 -3.09909,1.0352 -3.61327,2.654 -0.64719,1.9989 0.44378,4.1483 2.46214,4.7964 0.49998,0.1618 0.99573,0.2036 1.48688,0.1599 z m 80.48316,-0.2399 c 0.4931,0.0421 1.003,-0.014 1.5029,-0.1758 1.9989,-0.6667 3.0775,-2.8136 2.4302,-4.8124 -0.5326,-1.5993 -2.0139,-2.6059 -3.6133,-2.606 -0.3996,0 -0.7995,0.0593 -1.1991,0.1918 -1.9999,0.6472 -3.0807,2.7975 -2.4142,4.7964 0.4854,1.4992 1.8143,2.4799 3.2935,2.606 z m -40.20958,-2.9257 c 0,0 0.02954,0 0.04796,0 h 0.01599 c 2.11348,0.0184 3.82113,-1.6753 3.82111,-3.7892 0.01945,-2.0935 -1.66254,-3.8181 -3.75716,-3.8371 -0.01842,0 -0.02853,0 -0.04796,0 0,0 -0.01254,0 -0.03198,0 -0.01841,0 -0.03196,0 -0.03197,0 -2.11348,0 -3.82111,1.7106 -3.82112,3.8051 0,2.1135 1.69216,3.8211 3.80513,3.8212 z m 22.65489,-2.0305 c 0.96867,0.1095 1.98558,-0.1579 2.81387,-0.8154 1.63712,-1.2944 1.90172,-3.687 0.60754,-5.324 -0.7623,-0.9521 -1.86649,-1.4549 -2.98974,-1.4549 -0.81807,0 -1.66236,0.2634 -2.36621,0.8154 -1.65609,1.3143 -1.91854,3.7187 -0.62353,5.356 h 0.01599 c 0.64744,0.8283 1.57351,1.3134 2.54208,1.4229 z m -45.24583,-0.0959 c 0.96874,-0.1072 1.88512,-0.5882 2.54208,-1.407 1.31434,-1.6371 1.04562,-4.026 -0.59155,-5.3399 -0.70449,-0.571 -1.54717,-0.8474 -2.36621,-0.8474 -1.12299,0 -2.22791,0.5067 -2.98974,1.4389 -1.31383,1.6372 -1.04912,4.0265 0.60754,5.34 0.81858,0.6569 1.8291,0.9224 2.79788,0.8154 z m -11.3834,-6.635 c 0.96145,-0.1572 1.87531,-0.6719 2.49412,-1.5189 1.2381,-1.6944 0.8501,-4.0861 -0.86335,-5.324 -0.66663,-0.4957 -1.44211,-0.7194 -2.22232,-0.7194 -1.1808,0 -2.34286,0.5385 -3.08567,1.5668 -1.23759,1.7134 -0.86702,4.0863 0.84736,5.324 0.84698,0.6193 1.86842,0.8285 2.82986,0.6715 z m 67.80482,-0.2079 c 0.9615,0.1499 1.9829,-0.0593 2.8298,-0.6874 1.7144,-1.2387 2.0725,-3.614 0.8154,-5.308 -0.7623,-1.0216 -1.8768,-1.5667 -3.0537,-1.5669 -0.7812,0 -1.5692,0.2408 -2.2543,0.7355 -1.695,1.2376 -2.0532,3.629 -0.8154,5.324 0.6193,0.8475 1.5164,1.3529 2.4782,1.5028 z m -21.16805,-1.247 c 1.48148,0.0845 2.94575,-0.7146 3.64525,-2.1424 0.91374,-1.8848 0.12688,-4.1698 -1.75867,-5.0842 -0.55203,-0.266 -1.09178,-0.3998 -1.66274,-0.3997 -1.4095,0 -2.77074,0.7907 -3.43741,2.1424 -0.91374,1.8848 -0.12661,4.1698 1.75867,5.0842 0.4712,0.2331 0.96102,0.3716 1.4549,0.3997 z m -25.26091,-0.064 c 0.49365,-0.024 0.99951,-0.1392 1.47088,-0.3677 1.90423,-0.9142 2.70438,-3.199 1.79065,-5.0842 -0.66663,-1.3706 -2.02497,-2.1582 -3.45339,-2.1583 -0.55254,0 -1.11652,0.1171 -1.63077,0.3837 -1.90422,0.9137 -2.70438,3.1798 -1.79064,5.0841 0.6853,1.4136 2.13231,2.2144 3.61327,2.1424 z m 12.58249,-2.8938 c 0.01842,0 0.04158,0 0.07994,0 0,0 0.01254,0 0.03198,0 2.09454,0 3.81874,-1.7106 3.8371,-3.8051 0,-2.1135 -1.69461,-3.821 -3.78914,-3.8211 -0.03786,0 -0.06145,0 -0.07994,0 -0.01944,0 -0.04163,0 -0.07994,0 -2.09454,0 -3.80517,1.6946 -3.80512,3.7891 0,2.114 1.71057,3.8371 3.80512,3.8371 z m -25.72457,-5.0362 c 0.96146,0.1523 1.98283,-0.0684 2.82987,-0.6875 0,0 0,0.004 0,-0.016 1.69497,-1.2375 2.06897,-3.613 0.83137,-5.3079 -0.76231,-1.0284 -1.90488,-1.5671 -3.08567,-1.5669 -0.78124,0 -1.56923,0.2558 -2.2543,0.7515 -1.69497,1.2376 -2.054,3.613 -0.81538,5.308 0.61879,0.8469 1.53271,1.3664 2.49411,1.5188 z m 51.28926,-0.1599 c 0.96158,-0.1547 1.87508,-0.6777 2.49408,-1.5348 1.2376,-1.6934 0.8511,-4.0693 -0.8633,-5.308 -0.6656,-0.4758 -1.44173,-0.7195 -2.22233,-0.7194 -1.18081,0 -2.34292,0.5384 -3.08567,1.5668 -1.23519,1.71 -0.85737,4.0844 0.84736,5.3239 0.84749,0.6188 1.86829,0.8263 2.82986,0.6715 z m 52.80808,-0.3357 c 4.0607,0 7.3542,-3.2938 7.3545,-7.3545 0,-4.0606 -3.2938,-7.3542 -7.3545,-7.3544 -4.0606,0 -7.3542,3.2938 -7.3544,7.3544 0,4.0607 3.2938,7.3543 7.3544,7.3545 z m 30.2812,0 c 4.0606,0 7.3543,-3.2938 7.3544,-7.3545 0,-4.0606 -3.2938,-7.3542 -7.3544,-7.3544 -4.0607,0 -7.3543,3.2938 -7.3545,7.3544 0,4.0607 3.2937,7.3543 7.3545,7.3545 z M 60.27711,144.2418 c 0.49212,0.0411 1.00774,-0.0254 1.50286,-0.1919 1.99888,-0.6482 3.09688,-2.7976 2.43017,-4.7963 -0.51417,-1.5999 -2.01405,-2.622 -3.61327,-2.6221 -0.39957,0 -0.80189,0.0594 -1.18311,0.1919 -1.99887,0.6482 -3.07844,2.8161 -2.43016,4.7964 0.48539,1.4999 1.81714,2.4986 3.29351,2.622 z m 27.01959,-0.0959 c 1.47896,-0.1314 2.80823,-1.1228 3.29351,-2.6221 0.62877,-1.9998 -0.47811,-4.1519 -2.47813,-4.7803 -0.38013,-0.1331 -0.78587,-0.1921 -1.16712,-0.1919 -1.61874,0 -3.099,1.0352 -3.61327,2.654 -0.64719,1.9999 0.46322,4.152 2.46214,4.7804 0.49972,0.1618 1.00976,0.2036 1.50287,0.1599 z m -13.52578,-2.0145 c 2.11347,0 3.80513,-1.7106 3.80512,-3.8051 -0.01842,-2.1135 -1.70815,-3.8051 -3.82111,-3.8052 -2.09455,0.0195 -3.8076,1.7068 -3.78914,3.8212 0,2.0935 1.71057,3.8084 3.80513,3.7891 z" /></g></g></g></svg>